<svg xmlns="http://www.w3.org/2000/svg" viewBox="0 0 400 800" preserveAspectRatio="none" aria-hidden="true">
  <g fill="none" stroke="#e3b863" stroke-width="1.2">
    <path d="M-20,120 C80,80 140,170 220,120 320,70 380,150 440,110"></path>
    <path d="M-20,170 C80,130 140,220 220,170 320,120 380,200 440,160"></path>
    <path d="M-20,220 C80,180 140,270 220,220 320,170 380,250 440,210"></path>
    <path d="M-20,330 C90,300 150,380 230,340 330,300 380,360 440,330"></path>
    <path d="M-20,380 C90,350 150,430 230,390 330,350 380,410 440,380"></path>
    <path d="M-20,520 C70,560 160,470 240,520 330,560 390,490 440,520"></path>
    <path d="M-20,570 C70,610 160,520 240,570 330,610 390,540 440,570"></path>
    <path d="M-20,680 C80,640 150,720 240,680 330,640 380,700 440,670"></path>
  </g>
</svg>